<svg width="100" height="20" viewBox="0 0 100 20" fill="none" xmlns="http://www.w3.org/2000/svg">
    <g clip-path="url(#clip0)">
        <path d="M15.3168 19.6361V0.364014H0V19.6361H3.98012V4.24767H11.3367V19.6361H15.3168Z" fill="#EE1B39"/>
        <path d="M31.5348 12.2064C32.7363 10.9596 33.3984 9.18372 33.3984 7.209C33.3984 3.11487 30.6475 0.364014 26.5534 0.364014H18.6165V19.6361H22.5967V14.1753H26.5534C28.572 14.1753 30.2953 13.4942 31.5348 12.2064ZM22.5967 10.3399V4.19797H26.3838C28.1685 4.19797 29.3203 5.398 29.3203 7.25724C29.3203 9.12964 28.1671 10.3399 26.3838 10.3399H22.5967Z" fill="#EE1B39"/>
        <path d="M99.7918 19.6361V0.364014H95.8278L86.973 14.111L87.7754 14.054V0.364014H83.8435V19.6361H87.8076L96.9518 5.42577L95.8599 5.74003V19.6361H99.7918Z" fill="#EE1B39"/>
        <path d="M45.1489 0C42.4214 0 39.8942 1.02463 38.035 2.88533C36.1743 4.74604 35.1496 7.27326 35.1496 10.0007C35.1496 12.7282 36.1743 15.2554 38.035 17.1161C39.8957 18.9768 42.4229 20.0015 45.1489 20.0015C47.8764 20.0015 50.4036 18.9768 52.2643 17.1161C54.125 15.2554 55.1496 12.7282 55.1496 10.0007C55.1496 7.27326 54.125 4.74604 52.2643 2.88533C50.4036 1.02463 47.8764 0 45.1489 0ZM45.1489 16.1412C41.8148 16.1412 39.2014 13.443 39.2014 10.0007C39.2014 6.5585 41.8134 3.86026 45.1489 3.86026C48.4844 3.86026 51.0964 6.5585 51.0964 10.0007C51.0964 13.443 48.483 16.1412 45.1489 16.1412Z" fill="#EE1B39"/>
        <path d="M78.9771 15.5434C80.4899 14.0686 81.3245 12.0398 81.3245 9.82972C81.3245 7.61237 80.4914 5.57626 78.9771 4.09559C77.4379 2.59008 75.2834 1.76131 72.9126 1.76131H71.1966V0H67.3787V1.76131H65.6233C63.2525 1.76131 61.098 2.59008 59.5588 4.09559C58.046 5.5748 57.2114 7.61237 57.2114 9.82972C57.2114 12.0398 58.0445 14.0686 59.5588 15.5434C61.098 17.043 63.2525 17.8689 65.6233 17.8689H67.3787V20H71.1966V17.8689H72.9126C75.2834 17.8689 77.4365 17.043 78.9771 15.5434ZM67.3773 14.0539H65.445C62.9835 14.0539 61.2631 12.3175 61.2631 9.82972C61.2631 7.34196 62.9821 5.6055 65.445 5.6055H67.3773V14.0539ZM71.1952 5.6055H73.0895C75.5509 5.6055 77.2713 7.34196 77.2713 9.82972C77.2713 12.3175 75.5524 14.0539 73.0895 14.0539H71.1952V5.6055Z" fill="#EE1B39"/>
    </g>
    <defs>
        <clipPath id="clip0">
            <rect width="100" height="20" fill="white"/>
        </clipPath>
    </defs>
</svg>
